<mxfile host="app.diagrams.net" modified="2024-05-31T19:42:46.777Z" agent="Mozilla/5.0 (Macintosh; Intel Mac OS X 10_15_7) AppleWebKit/537.36 (KHTML, like Gecko) Chrome/125.0.0.0 Safari/537.36" version="24.4.13" etag="j_6WnKV1pDwyBCtKLoB7" type="github">
  <diagram name="Page-1" id="5Xnp6UyK9Nz0Rg9RN2sL">
    <mxGraphModel>
      <root>
        <mxCell id="0" />
        <mxCell id="1" parent="0" />
      </root>
    </mxGraphModel>
  </diagram>
</mxfile>
